%TF.GenerationSoftware,KiCad,Pcbnew,6.0.11-2627ca5db0~126~ubuntu22.04.1*%
%TF.CreationDate,2023-03-03T15:55:44-05:00*%
%TF.ProjectId,FloppyOverdrive_ControlBoard,466c6f70-7079-44f7-9665-726472697665,rev?*%
%TF.SameCoordinates,Original*%
%TF.FileFunction,Paste,Top*%
%TF.FilePolarity,Positive*%
%FSLAX46Y46*%
G04 Gerber Fmt 4.6, Leading zero omitted, Abs format (unit mm)*
G04 Created by KiCad (PCBNEW 6.0.11-2627ca5db0~126~ubuntu22.04.1) date 2023-03-03 15:55:44*
%MOMM*%
%LPD*%
G01*
G04 APERTURE LIST*
G04 Aperture macros list*
%AMRoundRect*
0 Rectangle with rounded corners*
0 $1 Rounding radius*
0 $2 $3 $4 $5 $6 $7 $8 $9 X,Y pos of 4 corners*
0 Add a 4 corners polygon primitive as box body*
4,1,4,$2,$3,$4,$5,$6,$7,$8,$9,$2,$3,0*
0 Add four circle primitives for the rounded corners*
1,1,$1+$1,$2,$3*
1,1,$1+$1,$4,$5*
1,1,$1+$1,$6,$7*
1,1,$1+$1,$8,$9*
0 Add four rect primitives between the rounded corners*
20,1,$1+$1,$2,$3,$4,$5,0*
20,1,$1+$1,$4,$5,$6,$7,0*
20,1,$1+$1,$6,$7,$8,$9,0*
20,1,$1+$1,$8,$9,$2,$3,0*%
G04 Aperture macros list end*
%ADD10RoundRect,0.135000X-0.135000X-0.185000X0.135000X-0.185000X0.135000X0.185000X-0.135000X0.185000X0*%
%ADD11R,1.528000X0.650000*%
%ADD12RoundRect,0.135000X-0.185000X0.135000X-0.185000X-0.135000X0.185000X-0.135000X0.185000X0.135000X0*%
%ADD13RoundRect,0.250000X-0.312500X-0.625000X0.312500X-0.625000X0.312500X0.625000X-0.312500X0.625000X0*%
%ADD14RoundRect,0.100000X-0.637500X-0.100000X0.637500X-0.100000X0.637500X0.100000X-0.637500X0.100000X0*%
%ADD15RoundRect,0.135000X0.185000X-0.135000X0.185000X0.135000X-0.185000X0.135000X-0.185000X-0.135000X0*%
%ADD16RoundRect,0.135000X0.135000X0.185000X-0.135000X0.185000X-0.135000X-0.185000X0.135000X-0.185000X0*%
G04 APERTURE END LIST*
D10*
%TO.C,R22*%
X94390000Y-114800000D03*
X95410000Y-114800000D03*
%TD*%
D11*
%TO.C,IC3*%
X111478000Y-100060000D03*
X111478000Y-101330000D03*
X111478000Y-102600000D03*
X111478000Y-103870000D03*
X116900000Y-103870000D03*
X116900000Y-102600000D03*
X116900000Y-101330000D03*
X116900000Y-100060000D03*
%TD*%
%TO.C,IC1*%
X97189000Y-109395000D03*
X97189000Y-110665000D03*
X97189000Y-111935000D03*
X97189000Y-113205000D03*
X102611000Y-113205000D03*
X102611000Y-111935000D03*
X102611000Y-110665000D03*
X102611000Y-109395000D03*
%TD*%
D12*
%TO.C,R25*%
X105500000Y-117390000D03*
X105500000Y-118410000D03*
%TD*%
D13*
%TO.C,FB1*%
X206075000Y-78000000D03*
X209000000Y-78000000D03*
%TD*%
D14*
%TO.C,U3*%
X179137500Y-122725000D03*
X179137500Y-123375000D03*
X179137500Y-124025000D03*
X179137500Y-124675000D03*
X179137500Y-125325000D03*
X179137500Y-125975000D03*
X179137500Y-126625000D03*
X179137500Y-127275000D03*
X184862500Y-127275000D03*
X184862500Y-126625000D03*
X184862500Y-125975000D03*
X184862500Y-125325000D03*
X184862500Y-124675000D03*
X184862500Y-124025000D03*
X184862500Y-123375000D03*
X184862500Y-122725000D03*
%TD*%
D12*
%TO.C,R18*%
X94300000Y-108390000D03*
X94300000Y-109410000D03*
%TD*%
D14*
%TO.C,U1*%
X194137500Y-109075000D03*
X194137500Y-109725000D03*
X194137500Y-110375000D03*
X194137500Y-111025000D03*
X194137500Y-111675000D03*
X194137500Y-112325000D03*
X194137500Y-112975000D03*
X194137500Y-113625000D03*
X194137500Y-114275000D03*
X194137500Y-114925000D03*
X199862500Y-114925000D03*
X199862500Y-114275000D03*
X199862500Y-113625000D03*
X199862500Y-112975000D03*
X199862500Y-112325000D03*
X199862500Y-111675000D03*
X199862500Y-111025000D03*
X199862500Y-110375000D03*
X199862500Y-109725000D03*
X199862500Y-109075000D03*
%TD*%
D12*
%TO.C,R17*%
X93900000Y-118090000D03*
X93900000Y-119110000D03*
%TD*%
D13*
%TO.C,FB2*%
X206075000Y-57290000D03*
X209000000Y-57290000D03*
%TD*%
D10*
%TO.C,R21*%
X124190000Y-104200000D03*
X125210000Y-104200000D03*
%TD*%
%TO.C,R20*%
X124190000Y-101100000D03*
X125210000Y-101100000D03*
%TD*%
D11*
%TO.C,IC2*%
X97189000Y-116195000D03*
X97189000Y-117465000D03*
X97189000Y-118735000D03*
X97189000Y-120005000D03*
X102611000Y-120005000D03*
X102611000Y-118735000D03*
X102611000Y-117465000D03*
X102611000Y-116195000D03*
%TD*%
D15*
%TO.C,R23*%
X105100000Y-109410000D03*
X105100000Y-108390000D03*
%TD*%
D12*
%TO.C,R24*%
X105100000Y-112190000D03*
X105100000Y-113210000D03*
%TD*%
D14*
%TO.C,U2*%
X194137500Y-119075000D03*
X194137500Y-119725000D03*
X194137500Y-120375000D03*
X194137500Y-121025000D03*
X194137500Y-121675000D03*
X194137500Y-122325000D03*
X194137500Y-122975000D03*
X194137500Y-123625000D03*
X194137500Y-124275000D03*
X194137500Y-124925000D03*
X199862500Y-124925000D03*
X199862500Y-124275000D03*
X199862500Y-123625000D03*
X199862500Y-122975000D03*
X199862500Y-122325000D03*
X199862500Y-121675000D03*
X199862500Y-121025000D03*
X199862500Y-120375000D03*
X199862500Y-119725000D03*
X199862500Y-119075000D03*
%TD*%
D16*
%TO.C,R19*%
X105510000Y-114800000D03*
X104490000Y-114800000D03*
%TD*%
D12*
%TO.C,R16*%
X94300000Y-112190000D03*
X94300000Y-113210000D03*
%TD*%
M02*
