M48
; DRILL file {KiCad 6.0.11-2627ca5db0~126~ubuntu22.04.1} date Fri 03 Mar 2023 03:55:40 PM EST
; FORMAT={-:-/ absolute / inch / decimal}
; #@! TF.CreationDate,2023-03-03T15:55:40-05:00
; #@! TF.GenerationSoftware,Kicad,Pcbnew,6.0.11-2627ca5db0~126~ubuntu22.04.1
; #@! TF.FileFunction,Plated,1,2,PTH
FMAT,2
INCH
; #@! TA.AperFunction,Plated,PTH,ViaDrill
T1C0.0157
; #@! TA.AperFunction,Plated,PTH,ComponentDrill
T2C0.0315
; #@! TA.AperFunction,Plated,PTH,ComponentDrill
T3C0.0354
; #@! TA.AperFunction,Plated,PTH,ComponentDrill
T4C0.0394
; #@! TA.AperFunction,Plated,PTH,ComponentDrill
T5C0.0433
; #@! TA.AperFunction,Plated,PTH,ComponentDrill
T6C0.0591
; #@! TA.AperFunction,Plated,PTH,ComponentDrill
T7C0.0906
%
G90
G05
T1
X3.7559Y-4.3622
X3.7598Y-4.6378
X3.9055Y-4.5906
X3.9567Y-4.4409
X4.1063Y-4.3543
X4.1063Y-4.626
X4.1063Y-4.6732
X4.1378Y-4.5591
X4.21Y-4.3534
X4.252Y-4.3819
X4.4961Y-3.9449
X4.6535Y-4.3976
X4.7874Y-4.3691
X4.8976Y-4.3346
X4.9882Y-4.1024
X5.0079Y-4.2953
X5.5512Y-4.252
X5.8268Y-5.1181
X5.9055Y-5.1575
X6.0512Y-4.7638
X6.8701Y-5.063
X6.9291Y-4.0551
X6.9606Y-5.0118
X7.2047Y-4.8425
X7.2835Y-5.0787
X7.3228Y-4.0551
X7.3228Y-4.8031
X7.3617Y-4.842
X7.4016Y-4.0551
X7.4016Y-4.9213
X7.5792Y-4.6649
X7.6378Y-4.0157
X7.7165Y-4.2913
X7.7559Y-4.4882
X7.7559Y-4.7244
T2
X3.3Y-5.0
X3.3Y-5.4
X3.3Y-5.6
X3.5Y-5.0
X3.5Y-5.4
X3.7Y-5.0
X3.7Y-5.4
X3.7Y-5.6
X3.8Y-5.6
X3.9Y-5.0
X3.9Y-5.4
X4.2Y-5.6
X4.2555Y-3.9671
X4.2555Y-4.0656
X4.3295Y-4.4636
X4.3295Y-4.5423
X4.3295Y-5.1329
X4.3295Y-5.2116
X4.4083Y-4.4636
X4.4083Y-4.5423
X4.4083Y-5.1329
X4.4083Y-5.2116
X4.487Y-4.4636
X4.487Y-4.5423
X4.487Y-5.1329
X4.487Y-5.2116
X4.5657Y-4.4636
X4.5657Y-4.5423
X4.5657Y-5.1329
X4.5657Y-5.2116
X4.6445Y-4.4636
X4.6445Y-4.5423
X4.6445Y-5.1329
X4.6445Y-5.2116
X4.7232Y-4.4636
X4.7232Y-4.5423
X4.7232Y-5.1329
X4.7232Y-5.2116
X4.7756Y-3.9685
X4.7756Y-4.0669
X4.802Y-4.4636
X4.802Y-4.5423
X4.802Y-5.1329
X4.802Y-5.2116
X4.8807Y-4.4636
X4.8807Y-4.5423
X4.8807Y-5.1329
X4.8807Y-5.2116
X4.9594Y-4.4636
X4.9594Y-4.5423
X4.9594Y-5.1329
X4.9594Y-5.2116
X5.0382Y-4.4636
X5.0382Y-4.5423
X5.0382Y-5.1329
X5.0382Y-5.2116
X5.1169Y-4.4636
X5.1169Y-4.5423
X5.1169Y-5.1329
X5.1169Y-5.2116
X5.1957Y-4.4636
X5.1957Y-4.5423
X5.1957Y-5.1329
X5.1957Y-5.2116
X5.2744Y-4.4636
X5.2744Y-4.5423
X5.2744Y-5.1329
X5.2744Y-5.2116
X5.3531Y-4.4636
X5.3531Y-4.5423
X5.3531Y-5.1329
X5.3531Y-5.2116
X5.4319Y-4.4636
X5.4319Y-4.5423
X5.4319Y-5.1329
X5.4319Y-5.2116
X5.5106Y-4.4636
X5.5106Y-4.5423
X5.5106Y-5.1329
X5.5106Y-5.2116
X5.5894Y-4.4636
X5.5894Y-4.5423
X5.5894Y-5.1329
X5.5894Y-5.2116
X5.6201Y-3.7764
X5.6201Y-4.1764
X5.6681Y-4.4636
X5.6681Y-4.5423
X5.6681Y-5.1329
X5.6681Y-5.2116
X6.25Y-3.7364
X6.25Y-4.1364
X6.3681Y-3.737
X6.3681Y-4.137
X6.4173Y-5.1772
X6.4173Y-5.2756
X6.4862Y-3.737
X6.4862Y-4.137
X6.6043Y-3.737
X6.6043Y-4.137
X6.6929Y-5.1118
X6.6929Y-5.5118
X6.9636Y-5.1575
X6.9636Y-5.2362
X7.0423Y-5.1575
X7.0423Y-5.2362
X7.1211Y-5.1575
X7.1211Y-5.2362
X7.1998Y-5.1575
X7.1998Y-5.2362
X7.2785Y-5.1575
X7.2785Y-5.2362
X7.474Y-5.1181
X7.874Y-5.1181
X8.0709Y-3.3071
X8.0709Y-3.4055
X8.0709Y-3.5433
X8.0709Y-3.6417
X8.0709Y-4.1732
X8.0709Y-4.5732
X8.0709Y-4.6976
X8.0709Y-5.0976
X8.1443Y-2.5178
X8.1496Y-2.8346
X8.2231Y-2.5178
X8.2283Y-2.8346
X8.2677Y-3.3071
X8.2677Y-3.4055
X8.2677Y-3.5433
X8.2677Y-3.6417
T3
X6.8898Y-3.8976
X6.9898Y-3.8976
X7.1654Y-3.8976
X7.2654Y-3.8976
X7.4409Y-3.8976
X7.5409Y-3.8976
X7.6437Y-5.2854
X7.7165Y-3.8976
X7.7224Y-5.2854
X7.8012Y-5.2854
X7.8165Y-3.8976
X7.8799Y-5.2854
T4
X2.7209Y-4.9569
X2.7209Y-5.0569
X2.7209Y-5.1569
X2.7209Y-5.2569
X2.7209Y-5.3569
X2.8209Y-4.9569
X2.8209Y-5.0569
X2.8209Y-5.1569
X2.8209Y-5.2569
X2.8209Y-5.3569
X2.9965Y-4.0518
X2.9965Y-4.1518
X2.9965Y-4.2518
X2.9965Y-4.3518
X2.9965Y-4.4518
X3.0965Y-4.0518
X3.0965Y-4.1518
X3.0965Y-4.2518
X3.0965Y-4.3518
X3.0965Y-4.4518
X3.4433Y-4.0913
X3.4433Y-4.1913
X3.4433Y-4.2913
X3.4433Y-4.3913
X3.5433Y-4.0913
X3.5433Y-4.1913
X3.5433Y-4.2913
X3.5433Y-4.3913
X3.8455Y-3.9843
X3.8455Y-4.1693
X3.8907Y-4.8661
X3.9455Y-3.9843
X3.9455Y-4.1693
X3.9907Y-4.8661
X4.0455Y-3.9843
X4.0455Y-4.1693
X4.5276Y-5.5299
X4.5276Y-5.6299
X4.6276Y-5.5299
X4.6276Y-5.6299
X4.7276Y-5.5299
X4.7276Y-5.6299
X4.8276Y-5.5299
X4.8276Y-5.6299
X4.9276Y-5.5299
X4.9276Y-5.6299
X5.0276Y-5.5299
X5.0276Y-5.6299
X5.1276Y-5.5299
X5.1276Y-5.6299
X5.2276Y-5.5299
X5.2276Y-5.6299
X5.3276Y-5.5299
X5.3276Y-5.6299
X5.4276Y-5.5299
X5.4276Y-5.6299
X5.5276Y-5.5299
X5.5276Y-5.6299
X5.6276Y-5.5299
X5.6276Y-5.6299
X5.7276Y-5.5299
X5.7276Y-5.6299
X5.8276Y-5.5299
X5.8276Y-5.6299
X5.9276Y-5.5299
X5.9276Y-5.6299
X5.9449Y-3.9157
X5.9449Y-4.0157
X6.0128Y-5.0785
X6.0128Y-5.1785
X6.0276Y-5.5299
X6.0276Y-5.6299
X6.1128Y-5.0785
X6.1128Y-5.1785
X6.1276Y-5.5299
X6.1276Y-5.6299
X6.2276Y-5.5299
X6.2276Y-5.6299
X6.3276Y-5.5299
X6.3276Y-5.6299
X6.4276Y-5.5299
X6.4276Y-5.6299
X8.4226Y-3.8183
X8.4226Y-3.9183
X8.4226Y-4.0183
X8.4226Y-4.1183
X8.4226Y-4.2183
X8.4226Y-4.3183
X8.4226Y-4.4183
X8.4226Y-4.5183
X8.4226Y-4.6183
X8.4226Y-4.7183
X8.4226Y-4.8183
X8.4226Y-4.9183
X8.4226Y-5.0183
X8.4226Y-5.1183
X8.4226Y-5.2183
X8.4226Y-5.3183
X8.4226Y-5.4183
X8.5226Y-3.8183
X8.5226Y-3.9183
X8.5226Y-4.0183
X8.5226Y-4.1183
X8.5226Y-4.2183
X8.5226Y-4.3183
X8.5226Y-4.4183
X8.5226Y-4.5183
X8.5226Y-4.6183
X8.5226Y-4.7183
X8.5226Y-4.8183
X8.5226Y-4.9183
X8.5226Y-5.0183
X8.5226Y-5.1183
X8.5226Y-5.2183
X8.5226Y-5.3183
X8.5226Y-5.4183
T5
X5.187Y-3.8878
X5.187Y-4.065
X5.4429Y-3.8878
X5.4429Y-4.065
T6
X8.5113Y-2.2047
X8.5113Y-2.4047
X8.5113Y-2.6047
X8.5113Y-2.8047
T7
X8.7259Y-2.0382
X8.7259Y-2.9713
T0
M30
